<svg id="svg" version="1.1" xmlns="http://www.w3.org/2000/svg" xmlns:xlink="http://www.w3.org/1999/xlink" width="400" height="400" viewBox="0, 0, 400,400"><g id="svgg"><path id="path0" d="M108.000 176.400 L 108.000 222.000 85.000 222.000 L 62.000 222.000 62.000 245.600 L 62.000 269.200 108.200 269.200 L 154.400 269.200 154.400 223.600 L 154.400 178.000 200.000 178.000 L 245.600 178.000 245.600 223.600 L 245.600 269.200 268.800 269.200 L 292.000 269.200 292.000 223.600 L 292.000 178.000 315.000 178.000 L 338.000 178.000 338.000 154.400 L 338.000 130.800 223.000 130.800 L 108.000 130.800 108.000 176.400 " stroke="none" fill="#fcfcfc" fill-rule="evenodd"></path><path id="path1" d="M0.000 200.000 L 0.000 400.000 200.000 400.000 L 400.000 400.000 400.000 200.000 L 400.000 0.000 200.000 0.000 L 0.000 0.000 0.000 200.000 M338.400 154.400 L 338.400 178.400 315.400 178.400 L 292.400 178.400 292.400 224.000 L 292.400 269.600 268.800 269.600 L 245.200 269.600 245.200 224.000 L 245.200 178.400 200.000 178.400 L 154.800 178.400 154.800 224.000 L 154.800 269.600 108.200 269.600 L 61.600 269.600 61.600 245.600 L 61.600 221.600 84.600 221.600 L 107.600 221.600 107.600 176.000 L 107.600 130.400 223.000 130.400 L 338.400 130.400 338.400 154.400 " stroke="none" fill="#1474ac" fill-rule="evenodd"></path><path id="path2" d="" stroke="none" fill="#c4100d4" fill-rule="evenodd"></path><path id="path3" d="M107.600 175.997 L 107.600 221.593 84.700 221.697 L 61.800 221.800 61.795 245.600 L 61.791 269.400 61.898 245.703 L 62.006 222.007 84.903 221.903 L 107.800 221.800 108.000 176.100 C 108.110 150.965,108.065 130.400,107.900 130.400 C 107.735 130.400,107.600 150.919,107.600 175.997 M315.200 177.995 L 292.200 178.200 292.197 224.000 L 292.195 269.800 292.299 224.100 L 292.403 178.400 315.402 178.400 C 330.467 178.400,338.400 178.262,338.400 178.000 C 338.400 177.780,338.355 177.643,338.300 177.695 C 338.245 177.747,327.850 177.882,315.200 177.995 M199.898 178.299 L 245.197 178.403 245.301 224.102 L 245.405 269.800 245.403 224.000 L 245.400 178.200 200.000 178.197 L 154.600 178.195 199.898 178.299 " stroke="none" fill="#4cbcd4" fill-rule="evenodd"></path><path id="path4" d="" stroke="none" fill="#5074d4" fill-rule="evenodd"></path></g></svg>